<svg width="33" height="31" viewBox="0 0 33 31" fill="none" xmlns="http://www.w3.org/2000/svg">
<path fill-rule="evenodd" clip-rule="evenodd" d="M16.92 21.9426L14.6804 21.9523H19.14L19.1663 21.9327L19.0352 21.9333L27.72 15.4304V6.48625C27.72 5.87049 27.1198 5.37131 26.4001 5.37131H6.59995C5.87096 5.37131 5.28 5.86182 5.28 6.47901V15.541L13.9273 21.9306L16.92 21.9426ZM12 4.26591L16.5 0.949707L21 4.26591H26.4034C27.864 4.26591 29.04 5.25553 29.04 6.47629V10.1909L33 13.1091V28.5913C33 29.8068 31.8159 30.7956 30.3553 30.7956H2.64475C1.17449 30.7956 0 29.8087 0 28.5913V13.1091L3.96 10.1909V6.47629C3.96 5.24688 5.14045 4.26591 6.5966 4.26591H12ZM19.0447 4.26591L16.5 2.38673L13.9553 4.26591H19.0447ZM29.04 11.647L31.02 13.1091L29.04 14.583V11.647ZM3.96 14.583L1.98 13.1091L3.96 11.647V14.583ZM12.54 23.0577L3.3 29.6902H29.7L20.46 23.0577H12.54ZM31.2644 29.3864L21.12 21.9712L31.68 14.2145V21.3997V28.5848C31.68 28.8978 31.5203 29.1837 31.2644 29.3864ZM1.73562 29.3864L11.88 21.9712L1.32 14.2145V21.3997V28.5848C1.32 28.8978 1.47973 29.1837 1.73562 29.3864Z" fill="#FFF5DD"/>
</svg>
