<svg width="33" height="31" viewBox="0 0 33 31" fill="none" xmlns="http://www.w3.org/2000/svg">
<path d="M16.5 0.949707C7.40138 0.949707 0 5.97073 0 12.1419C0 20.3988 15.2235 30.2126 15.8717 30.6267C16.0488 30.7391 16.2744 30.7956 16.5 30.7956C16.7256 30.7956 16.9512 30.7391 17.1285 30.6267C17.7766 30.2126 33 20.3988 33 12.1419C33 5.97073 25.5986 0.949707 16.5 0.949707ZM16.5 29.3036C13.6193 27.3527 1.83331 18.9524 1.83331 12.1419C1.83331 6.65631 8.41291 2.19327 16.5 2.19327C24.5871 2.19327 31.1667 6.65631 31.1667 12.1419C31.1667 18.9524 19.3807 27.3527 16.5 29.3036Z" fill="#FFF5DD"/>
<path d="M16.4999 5.92334C11.4457 5.92334 7.33325 8.71289 7.33325 12.1412C7.33325 15.5696 11.4458 18.3591 16.4999 18.3591C21.5541 18.3591 25.6666 15.5696 25.6666 12.1412C25.6666 8.71289 21.5542 5.92334 16.4999 5.92334ZM16.4999 17.1155C12.4555 17.1155 9.16663 14.884 9.16663 12.1412C9.16663 9.39847 12.4555 7.16695 16.4999 7.16695C20.5443 7.16695 23.8332 9.39847 23.8332 12.1412C23.8332 14.884 20.5444 17.1155 16.4999 17.1155Z" fill="#FFF5DD"/>
</svg>
